<svg width="393" height="180" viewBox="0 0 393 180" fill="none" xmlns="http://www.w3.org/2000/svg">
<g clip-path="url(#clip0_167_19850)">
<path d="M196.048 347.84C267.872 347.84 326.096 290.98 326.096 220.84C326.096 150.7 267.872 93.84 196.048 93.84C124.224 93.84 66 150.7 66 220.84C66 290.98 124.224 347.84 196.048 347.84Z" fill="#007EB3"/>
<path d="M265.318 98.0809L172.094 80.9774L172.047 80.9689C170.322 80.6523 168.963 80.403 167.853 80.2917C166.721 80.1782 165.754 80.1966 164.828 80.4727C163.315 80.9237 161.984 81.8421 161.026 83.0961C160.439 83.8637 160.079 84.7607 159.783 85.8598C159.493 86.937 159.243 88.296 158.927 90.0212L158.918 90.0678L139.101 198.082L139.093 198.128C138.776 199.853 138.527 201.212 138.416 202.322C138.302 203.455 138.321 204.421 138.597 205.347C139.048 206.86 139.966 208.191 141.22 209.15C141.988 209.736 142.885 210.097 143.984 210.393C145.061 210.683 146.42 210.932 148.145 211.249L148.192 211.257L241.416 228.361L241.462 228.369C243.188 228.686 244.546 228.935 245.656 229.046C246.789 229.16 247.755 229.141 248.681 228.865C250.194 228.414 251.525 227.496 252.484 226.242C253.071 225.474 253.431 224.577 253.727 223.478C254.017 222.401 254.266 221.042 254.583 219.317L254.591 219.27L274.408 111.256L274.417 111.21C274.733 109.485 274.983 108.126 275.094 107.016C275.207 105.883 275.189 104.917 274.913 103.991C274.462 102.478 273.543 101.147 272.289 100.188C271.522 99.6015 270.625 99.2412 269.526 98.9453C268.449 98.6553 267.09 98.406 265.364 98.0895L265.318 98.0809Z" fill="#F1F0EF" stroke="#E9E6E2" stroke-width="2.13562"/>
<path d="M256.358 85.6792L154.429 77.0291L154.381 77.0251C152.634 76.8768 151.257 76.76 150.141 76.7565C149.003 76.7529 148.043 76.8646 147.148 77.2289C145.686 77.824 144.45 78.8667 143.617 80.2076C143.107 81.0283 142.835 81.9559 142.647 83.0784C142.462 84.1786 142.346 85.5554 142.197 87.303L142.193 87.3503L132.189 205.239L132.185 205.287C132.036 207.034 131.92 208.411 131.916 209.527C131.913 210.665 132.024 211.625 132.389 212.52C132.984 213.982 134.026 215.218 135.367 216.051C136.188 216.561 137.116 216.833 138.238 217.021C139.338 217.206 140.715 217.323 142.463 217.471L142.51 217.475L244.439 226.125L244.486 226.129C246.234 226.277 247.611 226.394 248.727 226.398C249.865 226.401 250.825 226.289 251.72 225.925C253.182 225.33 254.418 224.287 255.251 222.946C255.761 222.126 256.033 221.198 256.221 220.076C256.406 218.975 256.522 217.599 256.671 215.851L256.675 215.804L266.679 97.9146L266.683 97.8672C266.831 96.1196 266.948 94.7429 266.952 93.6273C266.955 92.4891 266.844 91.5289 266.479 90.634C265.884 89.172 264.842 87.936 263.501 87.103C262.68 86.5931 261.752 86.3212 260.63 86.1329C259.53 85.9483 258.153 85.8315 256.405 85.6832L256.358 85.6792Z" fill="white" stroke="#E9E6E2" stroke-width="2.13562"/>
<path d="M132.064 84.0335C132.064 80.3879 132.064 78.5651 132.774 77.1727C133.398 75.9479 134.394 74.9521 135.619 74.328C137.011 73.6185 138.834 73.6185 142.479 73.6185H246.412C250.058 73.6185 251.88 73.6185 253.273 74.328C254.498 74.9521 255.493 75.9479 256.118 77.1727C256.827 78.5651 256.827 80.3879 256.827 84.0335V204.239C256.827 207.885 256.827 209.708 256.118 211.1C255.493 212.325 254.498 213.321 253.273 213.945C251.88 214.654 250.058 214.654 246.412 214.654H142.479C138.834 214.654 137.011 214.654 135.619 213.945C134.394 213.321 133.398 212.325 132.774 211.1C132.064 209.708 132.064 207.885 132.064 204.239V84.0335Z" fill="white" stroke="#DDDDDD" stroke-width="2.17"/>
<path fill-rule="evenodd" clip-rule="evenodd" d="M154.848 88.0517C150.798 88.0517 147.514 91.335 147.514 95.3851C147.514 99.4351 150.798 102.718 154.848 102.718C158.898 102.718 162.181 99.4351 162.181 95.3851C162.181 91.335 158.898 88.0517 154.848 88.0517ZM158.319 93.8565C158.579 93.5961 158.579 93.174 158.319 92.9137C158.059 92.6533 157.637 92.6533 157.376 92.9137L153.848 96.4423L152.319 94.9137C152.059 94.6533 151.637 94.6533 151.376 94.9137C151.116 95.174 151.116 95.5961 151.376 95.8565L153.376 97.8565C153.637 98.1168 154.059 98.1168 154.319 97.8565L158.319 93.8565Z" fill="#55757E"/>
<path d="M174.848 90.6728C174.848 89.1749 176.062 87.9606 177.56 87.9606H242.653C244.151 87.9606 245.366 89.1749 245.366 90.6728C245.366 92.1707 244.151 93.3851 242.653 93.3851H177.56C176.062 93.3851 174.848 92.1707 174.848 90.6728Z" fill="#CAD4D7"/>
<path d="M174.848 100.097C174.848 98.5994 176.062 97.3851 177.56 97.3851H210.107C211.605 97.3851 212.819 98.5994 212.819 100.097C212.819 101.595 211.605 102.81 210.107 102.81H177.56C176.062 102.81 174.848 101.595 174.848 100.097Z" fill="#CAD4D7"/>
<path fill-rule="evenodd" clip-rule="evenodd" d="M154.848 121.477C150.798 121.477 147.514 124.761 147.514 128.811C147.514 132.861 150.798 136.144 154.848 136.144C158.898 136.144 162.181 132.861 162.181 128.811C162.181 124.761 158.898 121.477 154.848 121.477ZM158.319 127.282C158.579 127.022 158.579 126.6 158.319 126.339C158.059 126.079 157.637 126.079 157.376 126.339L153.848 129.868L152.319 128.339C152.059 128.079 151.637 128.079 151.376 128.339C151.116 128.6 151.116 129.022 151.376 129.282L153.376 131.282C153.637 131.542 154.059 131.542 154.319 131.282L158.319 127.282Z" fill="#55757E"/>
<path d="M174.848 124.098C174.848 122.6 176.062 121.386 177.56 121.386H242.653C244.151 121.386 245.366 122.6 245.366 124.098C245.366 125.596 244.151 126.811 242.653 126.811H177.56C176.062 126.811 174.848 125.596 174.848 124.098Z" fill="#CAD4D7"/>
<path d="M174.848 133.523C174.848 132.025 176.062 130.811 177.56 130.811H210.107C211.605 130.811 212.819 132.025 212.819 133.523C212.819 135.021 211.605 136.235 210.107 136.235H177.56C176.062 136.235 174.848 135.021 174.848 133.523Z" fill="#CAD4D7"/>
<path fill-rule="evenodd" clip-rule="evenodd" d="M154.848 152.87C150.798 152.87 147.514 156.153 147.514 160.203C147.514 164.254 150.798 167.537 154.848 167.537C158.898 167.537 162.181 164.254 162.181 160.203C162.181 156.153 158.898 152.87 154.848 152.87ZM158.319 158.675C158.579 158.414 158.579 157.992 158.319 157.732C158.059 157.472 157.637 157.472 157.376 157.732L153.848 161.261L152.319 159.732C152.059 159.472 151.637 159.472 151.376 159.732C151.116 159.992 151.116 160.414 151.376 160.675L153.376 162.675C153.637 162.935 154.059 162.935 154.319 162.675L158.319 158.675Z" fill="#55757E"/>
<path d="M174.848 155.491C174.848 153.993 176.062 152.779 177.56 152.779H242.653C244.151 152.779 245.366 153.993 245.366 155.491C245.366 156.989 244.151 158.203 242.653 158.203H177.56C176.062 158.203 174.848 156.989 174.848 155.491Z" fill="#CAD4D7"/>
<path d="M174.848 164.916C174.848 163.418 176.062 162.203 177.56 162.203H210.107C211.605 162.203 212.819 163.418 212.819 164.916C212.819 166.414 211.605 167.628 210.107 167.628H177.56C176.062 167.628 174.848 166.414 174.848 164.916Z" fill="#CAD4D7"/>
</g>
<defs>
<clipPath id="clip0_167_19850">
<rect width="393" height="180" fill="white"/>
</clipPath>
</defs>
</svg>
