<svg width="393" height="180" viewBox="0 0 393 180" fill="none" xmlns="http://www.w3.org/2000/svg">
<g clip-path="url(#clip_policy)">
<path d="M196.048 347.84C267.872 347.84 326.096 290.98 326.096 220.84C326.096 150.7 267.872 93.84 196.048 93.84C124.224 93.84 66 150.7 66 220.84C66 290.98 124.224 347.84 196.048 347.84Z" fill="#007EB3"/>
<path d="M265.318 98.0809L172.094 80.9774L172.047 80.9689C170.322 80.6523 168.963 80.403 167.853 80.2917C166.721 80.1782 165.754 80.1966 164.828 80.4727C163.315 80.9237 161.984 81.8421 161.026 83.0961C160.439 83.8637 160.079 84.7607 159.783 85.8598C159.493 86.937 159.243 88.296 158.927 90.0212L158.918 90.0678L139.101 198.082L139.093 198.128C138.776 199.853 138.527 201.212 138.416 202.322C138.302 203.455 138.321 204.421 138.597 205.347C139.048 206.86 139.966 208.191 141.22 209.15C141.988 209.736 142.885 210.097 143.984 210.393C145.061 210.683 146.42 210.932 148.145 211.249L148.192 211.257L241.416 228.361L241.462 228.369C243.188 228.686 244.546 228.935 245.656 229.046C246.789 229.16 247.755 229.141 248.681 228.865C250.194 228.414 251.525 227.496 252.484 226.242C253.071 225.474 253.431 224.577 253.727 223.478C254.017 222.401 254.266 221.042 254.583 219.317L254.591 219.27L274.408 111.256L274.417 111.21C274.733 109.485 274.983 108.126 275.094 107.016C275.207 105.883 275.189 104.917 274.913 103.991C274.462 102.478 273.543 101.147 272.289 100.188C271.522 99.6015 270.625 99.2412 269.526 98.9453C268.449 98.6553 267.09 98.406 265.364 98.0895L265.318 98.0809Z" fill="#F1F0EF" stroke="#E9E6E2" stroke-width="2.13562"/>
<path d="M256.358 85.6792L154.429 77.0291L154.381 77.0251C152.634 76.8768 151.257 76.76 150.141 76.7565C149.003 76.7529 148.043 76.8646 147.148 77.2289C145.686 77.824 144.45 78.8667 143.617 80.2076C143.107 81.0283 142.835 81.9559 142.647 83.0784C142.462 84.1786 142.346 85.5554 142.197 87.303L142.193 87.3503L132.189 205.239L132.185 205.287C132.036 207.034 131.92 208.411 131.916 209.527C131.913 210.665 132.024 211.625 132.389 212.52C132.984 213.982 134.026 215.218 135.367 216.051C136.188 216.561 137.116 216.833 138.238 217.021C139.338 217.206 140.715 217.323 142.463 217.471L142.51 217.475L244.439 226.125L244.486 226.129C246.234 226.277 247.611 226.394 248.727 226.398C249.865 226.401 250.825 226.289 251.72 225.925C253.182 225.33 254.418 224.287 255.251 222.946C255.761 222.126 256.033 221.198 256.221 220.076C256.406 218.975 256.522 217.599 256.671 215.851L256.675 215.804L266.679 97.9146L266.683 97.8672C266.831 96.1196 266.948 94.7429 266.952 93.6273C266.955 92.4891 266.844 91.5289 266.479 90.634C265.884 89.172 264.842 87.936 263.501 87.103C262.68 86.5931 261.752 86.3212 260.63 86.1329C259.53 85.9483 258.153 85.8315 256.405 85.6832L256.358 85.6792Z" fill="white" stroke="#E9E6E2" stroke-width="2.13562"/>
<path d="M132.064 84.0335C132.064 80.3879 132.064 78.5651 132.774 77.1727C133.398 75.9479 134.394 74.9521 135.619 74.328C137.011 73.6185 138.834 73.6185 142.479 73.6185H246.412C250.058 73.6185 251.88 73.6185 253.273 74.328C254.498 74.9521 255.493 75.9479 256.118 77.1727C256.827 78.5651 256.827 80.3879 256.827 84.0335V204.239C256.827 207.885 256.827 209.708 256.118 211.1C255.493 212.325 254.498 213.321 253.273 213.945C251.88 214.654 250.058 214.654 246.412 214.654H142.479C138.834 214.654 137.011 214.654 135.619 213.945C134.394 213.321 133.398 212.325 132.774 211.1C132.064 209.708 132.064 207.885 132.064 204.239V84.0335Z" fill="white" stroke="#DDDDDD" stroke-width="2.17"/>
<!-- Shield icon -->
<path d="M194.5 86C194.5 86 172 96 172 114C172 132 183 148 194.5 155C206 148 217 132 217 114C217 96 194.5 86 194.5 86Z" fill="#55757E" opacity="0.12" stroke="#55757E" stroke-width="2.5" stroke-linejoin="round"/>
<!-- Checkmark inside shield -->
<path d="M185 118L191 124L205 108" stroke="#55757E" stroke-width="3.5" stroke-linecap="round" stroke-linejoin="round"/>
<!-- Small stamp circle -->
<circle cx="218" cy="145" r="10" fill="none" stroke="#CAD4D7" stroke-width="2"/>
<circle cx="218" cy="145" r="5" fill="#CAD4D7"/>
<!-- Placeholder text lines -->
<rect x="150" y="180" width="90" height="5" rx="2.5" fill="#CAD4D7"/>
<rect x="150" y="192" width="60" height="5" rx="2.5" fill="#CAD4D7"/>
</g>
<defs>
<clipPath id="clip_policy">
<rect width="393" height="180" fill="white"/>
</clipPath>
</defs>
</svg>
